HIERARCHY
ROOT Hips
{
  OFFSET -35.4901 99.2528 17.4586
  CHANNELS 6 Xposition Yposition Zposition Zrotation Xrotation Yrotation
  JOINT LeftUpLeg
  {
    OFFSET 8.64259 1.95398 -2.38835
    CHANNELS 3 Zrotation Xrotation Yrotation
    JOINT LeftLeg
    {
      OFFSET 43.7702 0 0
      CHANNELS 3 Zrotation Xrotation Yrotation
      JOINT LeftFoot
      {
        OFFSET 40.6238 0 0
        CHANNELS 3 Zrotation Xrotation Yrotation
        JOINT LeftToeBase
        {
          OFFSET 12.7242 0 0
          CHANNELS 3 Zrotation Xrotation Yrotation
          End Site
          {
            OFFSET 0 0 0
          }
        }
      }
    }
  }
  JOINT RightUpLeg
  {
    OFFSET -8.2249 1.95398 -2.59336
    CHANNELS 3 Zrotation Xrotation Yrotation
    JOINT RightLeg
    {
      OFFSET 43.5653 0 0
      CHANNELS 3 Zrotation Xrotation Yrotation
      JOINT RightFoot
      {
        OFFSET 40.6238 0 0
        CHANNELS 3 Zrotation Xrotation Yrotation
        JOINT RightToeBase
        {
          OFFSET 12.7242 0 0
          CHANNELS 3 Zrotation Xrotation Yrotation
          End Site
          {
            OFFSET 0 0 0
          }
        }
      }
    }
  }
  JOINT Spine
  {
    OFFSET 0.165834 0.87714 6.61349
    CHANNELS 3 Zrotation Xrotation Yrotation
    JOINT Spine1
    {
      OFFSET 7.38963 1.71661e-005 0
      CHANNELS 3 Zrotation Xrotation Yrotation
      JOINT Spine2
      {
        OFFSET 11.9445 1.14441e-005 0
        CHANNELS 3 Zrotation Xrotation Yrotation
        JOINT Spine3
        {
          OFFSET 14.7254 4.19617e-005 0
          CHANNELS 3 Zrotation Xrotation Yrotation
          JOINT Spine4
          {
            OFFSET 10.9679 0 0
            CHANNELS 3 Zrotation Xrotation Yrotation
            JOINT RightShoulder
            {
              OFFSET 2.46616 -1.6653 3.69651
              CHANNELS 3 Zrotation Xrotation Yrotation
              JOINT RightArm
              {
                OFFSET 13.0012 0 0
                CHANNELS 3 Zrotation Xrotation Yrotation
                JOINT RightForeArm
                {
                  OFFSET 28.7848 1.52588e-005 0
                  CHANNELS 3 Zrotation Xrotation Yrotation
                  JOINT RightHand
                  {
                    OFFSET 26.5688 1.52588e-005 0
                    CHANNELS 3 Zrotation Xrotation Yrotation
                    End Site
                    {
                      OFFSET 0 0 0
                    }
                  }
                }
              }
            }
            JOINT LeftShoulder
            {
              OFFSET 2.38034 -1.29275 -3.7523
              CHANNELS 3 Zrotation Xrotation Yrotation
              JOINT LeftArm
              {
                OFFSET 16.3182 6.10351e-005 0
                CHANNELS 3 Zrotation Xrotation Yrotation
                JOINT LeftForeArm
                {
                  OFFSET 27.0901 0 0
                  CHANNELS 3 Zrotation Xrotation Yrotation
                  JOINT LeftHand
                  {
                    OFFSET 24.5451 1.52588e-005 0
                    CHANNELS 3 Zrotation Xrotation Yrotation
                    End Site
                    {
                      OFFSET 0 0 0
                    }
                  }
                }
              }
            }
            JOINT Neck
            {
              OFFSET 5.0226 -0.0266342 0
              CHANNELS 3 Zrotation Xrotation Yrotation
              JOINT Head
              {
                OFFSET 6.69364 2.86102e-005 0
                CHANNELS 3 Zrotation Xrotation Yrotation
                End Site
                {
                  OFFSET 0 0 0
                }
              }
            }
          }
        }
      }
    }
  }
}
MOTION
Frames:	15
Frame Time:	0.0416667
-2.70453 97.4022 91.6786 -138.478 -81.2828 -139.44 -178.413 4.28112 84.5417 -28.7624 16.2647 -0.402496 76.4119 7.43921 1.65125 10.602 -1.04728 2.60662 178.248 17.5878 86.5727 -52.0328 -3.12141 -4.75268 76.425 -9.29152 -4.831 14.6554 -1.81614 5.07923 0.410709 8.04561 -89.9533 10.7828 0.839408 0.0150763 -0.887832 0.839265 -0.0218905 -23.425 0.796068 0.26668 -3.41236 0.796068 0.266668 88.7872 -28.9697 -109.59 42.2313 -8.76521 -0.721781 5.95794 -25.8255 -9.78035 -24.6087 -0.500035 -5.48389 -83.5104 -47.0814 88.176 -11.667 3.10659 -31.4765 12.2465 30.6014 -14.7661 -1.41854 -0.0765598 -2.6925 -7.30081 0.948155 -4.00142 -2.87461 1.27482 -2.98608 
-4.53375 97.6834 97.1565 -161.18 -82.9909 -160.747 -177.148 0.664061 88.4762 -27.0725 21.3056 0.483526 78.6434 8.68878 2.04086 8.97806 0.35033 1.04019 177.416 18.8151 88.877 -33.2542 -5.63332 -3.56034 70.5128 -6.72573 -3.57025 17.1459 -0.714262 2.82162 -0.0939192 8.06895 -90.1623 10.7354 -0.261814 -0.298484 -0.935559 -0.274701 -0.286669 -23.4706 -0.160009 -0.363369 -3.45792 -0.160005 -0.363363 88.9026 -29.5948 -109.095 41.8863 -7.40929 3.02391 6.83672 -24.89 -9.89021 -24.0575 -0.330741 -6.27101 -84.6934 -42.4392 85.6808 -13.7116 0.114532 -37.1418 15.6427 27.2816 -18.9709 0.368753 -0.0837597 -3.95634 -7.29794 1.12661 -6.34236 -2.96542 1.61036 -0.387085 
-6.09718 97.0137 103.359 -177.096 -82.8809 -176.009 -174.991 -5.83287 89.8266 -25.9803 25.3289 -0.0630712 81.0294 10.064 1.02822 11.6449 -2.17518 3.95012 175.43 17.14 90.6921 -13.3345 -10.6947 -1.56275 64.6356 -3.89736 -2.17421 21.2857 -1.35449 3.98327 -0.431568 8.12495 -90.2729 10.6218 -0.985036 -0.453568 -1.04887 -1.00405 -0.409779 -23.5856 -0.803188 -0.728655 -3.57293 -0.803185 -0.728651 88.8224 -30.8707 -108.726 40.9881 -6.63469 5.84353 6.18559 -25.3875 -9.76578 -24.0026 -0.256025 -6.76731 -85.3935 -41.0112 84.2919 -14.8557 -3.20608 -42.1692 19.6118 26.2809 -24.0714 3.55338 -0.152282 -5.57146 -6.91863 1.3256 -8.13015 -3.45981 1.95348 1.33111 
-7.72714 95.5223 110.276 -177.871 -82.3538 -176.041 -172.04 -10.8079 94.5637 -25.3997 27.8953 -1.12735 84.4974 12.0888 1.1485 12.7734 -1.66834 3.30136 175.591 18.2739 93.3683 -8.07801 -11.281 -0.996797 65.5823 -3.44779 -2.18926 22.0682 -1.4475 4.15876 -0.59073 8.16535 -90.3401 10.5398 -1.33281 -0.556638 -1.13057 -1.356 -0.497433 -23.6688 -1.1039 -0.931487 -3.65617 -1.1039 -0.931495 88.6082 -33.1912 -108.224 39.4258 -6.29721 7.19526 6.82477 -25.7323 -9.14276 -22.8779 -0.303789 -6.62034 -85.4587 -41.1312 84.2012 -18.4619 -5.97408 -45.34 24.5468 25.5255 -30.6595 4.21749 -0.235011 -6.88523 -6.89589 1.75488 -9.37373 -3.57763 2.46426 2.43638 
-9.40872 93.9479 118.195 -179.914 -81.9296 -176.71 -168.468 -16.026 99.5714 -25.1798 29.4659 -1.57177 87.4952 13.5694 0.487165 11.2554 -0.99595 2.51979 176.842 16.5363 95.8792 -8.59331 -11.3055 -0.380422 62.9883 -2.738 -1.4982 22.7791 -0.888021 2.83586 -0.763768 8.12142 -90.5198 10.6242 -1.7602 -0.873731 -1.04578 -1.79694 -0.79541 -23.5853 -1.41624 -1.36239 -3.57265 -1.41624 -1.36239 88.7126 -33.8569 -107.772 39.5951 -4.00368 8.52671 6.07851 -26.7965 -8.85161 -20.3703 -0.231818 -7.49642 -85.0677 -42.7496 85.1086 -22.3905 -6.09855 -45.613 27.9863 25.1719 -35.6743 4.01415 -0.3217 -8.51166 -6.89836 2.35096 -8.40677 -4.24417 2.97839 1.99248 
-10.7889 93.2716 126.816 -179.13 -81.4586 -174.488 -166.905 -21.5359 101.982 -24.1707 27.9293 0.703589 80.5746 10.162 0.943913 28.3812 1.8054 -2.97343 177.085 19.8085 98.1229 -22.1097 -11.2159 -0.14539 60.4317 -0.407593 -3.43041 20.0465 -1.56403 4.49703 -0.893992 7.99922 -90.7132 10.8642 -2.10953 -1.2206 -0.805517 -2.16121 -1.12655 -23.3453 -1.64521 -1.79819 -3.33267 -1.64521 -1.7982 89.1115 -34.0029 -106.974 40.4571 -2.652 8.96896 6.45414 -26.4678 -8.0255 -19.3022 -0.186915 -7.93756 -84.9105 -44.7166 85.6563 -22.8822 -2.79838 -41.7233 27.934 26.6515 -35.693 3.5404 -0.256464 -7.57794 -7.41807 2.75592 -6.93534 -5.26469 3.21547 2.23099 
-12.0019 92.967 135.1 -172.526 -80.5741 -166.354 -166.174 -21.5271 103.178 -32.761 26.3958 3.46842 70.4318 5.23796 0.588647 38.8148 2.30679 -5.64558 176.903 18.8769 100.139 -31.6734 -9.95421 0.627493 63.788 -1.78915 -2.96346 16.2895 -0.995204 3.4069 -0.785444 7.91579 -90.9537 11.0245 -2.00554 -1.70582 -0.645921 -2.07866 -1.61591 -23.1789 -1.4003 -2.22958 -3.16623 -1.40029 -2.22958 89.0715 -33.3495 -107.29 41.1518 -2.3469 8.58946 6.5515 -26.111 -7.55993 -17.8548 -0.0741703 -8.98403 -84.8675 -46.1368 85.9256 -21.532 4.34781 -37.1265 20.4815 29.287 -26.3146 1.05184 -0.176776 -7.30416 -8.46741 2.89618 -4.20006 -5.36696 3.14365 1.13564 
-13.2063 93.1816 141.627 -173.01 -79.6626 -166.181 -165.86 -12.1874 104.956 -50.8605 28.9338 5.75781 57.31 -0.254625 -1.47186 22.3144 -0.570013 1.04934 176.793 15.0433 101.35 -35.2739 -9.92192 0.963279 70.0509 -4.80975 -3.89377 15.756 -1.3114 4.07187 -0.655557 8.02155 -91.0383 10.8124 -1.78461 -1.89906 -0.858561 -1.86644 -1.8187 -23.3873 -1.13153 -2.34743 -3.37468 -1.13154 -2.34744 88.6386 -33.0179 -108.23 40.6508 -3.17382 5.56286 6.49948 -26.1418 -7.55223 -18.0324 0.0126632 -9.6375 -84.8738 -46.6549 85.987 -20.4121 11.5265 -35.8774 6.82768 33.5202 -8.2854 -5.00593 0.02329 -9.2947 -7.72658 2.86359 -2.56171 -5.54427 3.03476 0.467416 
-13.7879 93.6755 147.339 -176.507 -79.9321 -170.207 -168.519 0.584507 103.099 -65.9576 24.3246 6.84701 62.8218 2.05859 -1.46128 17.4815 -2.42803 4.22373 175.884 10.7676 100.542 -35.1204 -10.6406 1.33144 74.3335 -6.66851 -3.93436 16.6594 -1.35368 4.12669 -0.424623 8.07907 -90.9803 10.7019 -1.29718 -1.83013 -0.969631 -1.37646 -1.77129 -23.4963 -0.687329 -2.13525 -3.48367 -0.687327 -2.13525 88.4743 -32.5157 -108.737 39.2074 -5.11435 1.14896 6.31576 -26.2876 -8.54676 -20.5383 -0.0291217 -8.74931 -84.9843 -47.761 85.9658 -22.4689 14.1103 -29.6656 0.0185831 34.1719 3.49597e-005 -2.55291 -0.0892887 -5.15968 -7.077 2.26077 -1.69948 -4.92473 2.38562 0.227795 
-13.9629 94.6559 152.904 -169.01 -80.5678 -164.512 -171.606 12.0351 98.4148 -68.1375 14.0673 5.1648 70.4531 5.57544 0.899079 14.9597 -0.577841 1.82323 175.32 5.74288 98.3507 -31.7996 -12.7904 0.634546 77.002 -7.68898 -3.15724 17.636 -1.18996 3.7563 0.0176467 8.05393 -90.7733 10.763 -0.321534 -1.50812 -0.908793 -0.387589 -1.49252 -23.4369 0.14652 -1.53503 -3.42421 0.146523 -1.53503 88.315 -31.8648 -109.3 36.4242 -7.02843 -3.24352 5.30186 -26.4524 -10.3641 -21.7739 -0.120155 -7.97771 -85.202 -49.4792 85.8652 -25.2015 13.3135 -17.1585 1.93702 31.8103 -2.79019 -0.0398804 -0.0780909 -3.66744 -7.26679 1.34934 -1.26825 -4.33544 1.43781 0.366638 
-13.7497 95.7102 158.669 -150.631 -80.1155 -149.117 -174.277 18.8886 93.0229 -58.0167 -0.885727 2.06473 72.0282 6.73617 1.1559 12.9379 0.442814 0.646713 174.564 0.675395 94.8176 -28.6048 -16.864 -1.15023 78.3114 -8.26391 -2.83177 18.292 -0.720772 2.7542 0.619526 8.03345 -90.4394 10.8106 1.03083 -0.969949 -0.860394 0.987152 -1.01439 -23.3974 1.27467 -0.615289 -3.38474 1.27468 -0.615294 88.2527 -30.3402 -110.06 33.8301 -8.3746 -7.01414 4.44285 -27.7028 -12.2183 -24.5203 -0.323515 -6.69766 -84.3235 -50.4127 87.311 -26.4687 14.5302 -3.85443 4.06034 23.3221 -9.67789 0.923313 -0.0862482 -4.11961 -7.59693 0.723978 1.17786 -3.69118 0.66154 -1.7246 
-13.3889 95.8478 164.802 -136.969 -79.2634 -137.086 -176.896 21.8833 90.1433 -40.2372 -2.51126 0.136476 68.2869 5.51379 1.15255 15.1865 1.57998 -1.03444 173.21 -3.67174 91.9579 -26.3358 -20.7856 -1.99835 80.5586 -9.65031 -2.99536 17.7541 -0.637763 2.61341 1.09132 8.02898 -90.2872 10.8237 2.04044 -0.761326 -0.845911 2.00495 -0.850427 -23.3938 2.17488 -0.11262 -3.38111 2.17487 -0.112623 88.2188 -27.6541 -111.324 31.7975 -8.59368 -10.3167 3.08645 -27.9546 -14.7429 -24.9977 -0.387648 -6.35321 -83.0411 -52.078 89.3947 -26.4842 14.6587 6.50248 3.78279 17.5896 -12.3682 -0.325 -0.0940501 -4.58226 -7.25119 0.367471 3.80856 -3.01547 0.107269 -3.59666 
-13.317 94.8676 171.673 -131.049 -78.7008 -131.871 -178.525 18.4903 88.4301 -13.6449 2.30708 -0.854579 61.8785 3.29836 -1.79672 16.5971 -1.66773 3.20695 170.994 -8.51597 88.8038 -24.4242 -24.0071 -1.86067 83.5025 -11.3885 -2.78806 18.7692 -0.87241 3.04265 1.35446 8.0263 -90.2441 10.8315 2.58419 -0.726665 -0.837142 2.5497 -0.839772 -23.393 2.68303 0.0841428 -3.38032 2.68302 0.0841296 88.633 -26.0634 -111.217 28.4487 -9.31769 -14.6953 2.37293 -29.1563 -15.5922 -25.1179 -0.194859 -7.55876 -82.4634 -53.3229 90.3508 -26.6594 10.9466 12.8568 2.44765 14.4881 -8.09609 -0.867932 -0.0738198 -3.09689 -6.70459 0.15034 6.56495 -2.37132 -0.365964 -5.57699 
-13.4674 93.3488 179.128 -129.008 -77.8894 -130.349 179.603 19.9697 87.2054 -8.1057 -3.69526 -2.45538 64.1475 3.61834 -2.08093 16.7123 -3.31699 5.43167 168.683 -13.9746 85.691 -23.2217 -26.7356 -1.83872 86.1996 -13.3889 -3.7649 20.5993 -1.51124 4.3363 1.57188 8.07613 -90.1866 10.733 3.04428 -0.65084 -0.934579 3.01268 -0.784311 -23.4984 3.099 0.295072 -3.48571 3.099 0.295073 88.9354 -26.2555 -110.498 25.4089 -8.41971 -18.4453 1.28736 -30.8638 -15.8068 -25.2617 -0.344842 -7.02743 -82.3118 -54.1772 90.6369 -26.5784 6.51269 15.6786 1.99859 11.83 -2.48996 -0.117804 -0.0313843 -1.2088 -5.71536 -0.180235 6.62438 -2.32632 -0.759338 -5.44335 
-13.8913 92.6253 187.542 -124.556 -76.5952 -126.504 179.792 19.3425 85.5641 -10.571 -4.15742 -2.56309 59.583 1.71517 -1.89398 12.1431 -2.29511 4.10664 166.657 -18.4021 82.425 -23.3911 -29.0635 -2.64541 82.6927 -12.1342 -4.57143 28.7943 -2.20849 6.00157 1.70375 8.02371 -90.0243 10.8362 3.38119 -0.365202 -0.830429 3.36183 -0.513841 -23.4002 3.33446 0.669037 -3.38751 3.33445 0.669027 88.32 -26.8217 -111.504 25.8176 -6.60065 -19.8092 0.775955 -30.9573 -15.6005 -25.8088 -0.506138 -6.16173 -81.2497 -54.9942 92.2211 -26.805 5.64608 17.7183 2.06173 7.71779 -2.30305 -2.09294 -0.0830155 -1.80923 -4.75254 -0.00754015 5.065 -3.14797 -0.45732 -4.58771 
